<svg class="icono" viewBox="0 0 48 48" fill="none" xmlns="http://www.w3.org/2000/svg">
<g clip-path="url(#clip0_636_180963)">
<path d="M13 15.9999V21.9999M13 21.9999H19M13 21.9999L17.64 17.6399C19.0209 16.2614 20.8125 15.3689 22.7447 15.0971C24.6769 14.8252 26.6451 15.1887 28.3528 16.1327C30.0605 17.0767 31.4152 18.5502 32.2126 20.331C33.0101 22.1119 33.2072 24.1037 32.7742 26.0063C32.3413 27.9089 31.3017 29.6193 29.8121 30.8797C28.3226 32.1401 26.4637 32.8823 24.5157 32.9944C22.5677 33.1065 20.636 32.5825 19.0117 31.5013C17.3873 30.4201 16.1584 28.8403 15.51 26.9999" stroke="currentColor" stroke-width="2" stroke-linecap="round" stroke-linejoin="round"/>
</g>
<defs>
<clipPath id="clip0_636_180963">
<rect x="4" y="4" width="40" height="40" rx="20" fill="currentColor"/>
</clipPath>
</defs>
</svg>
